<svg id="Layer_1" data-name="Layer 1" xmlns="http://www.w3.org/2000/svg" xmlns:xlink="http://www.w3.org/1999/xlink" viewBox="0 0 595.28 841.89"><defs><style>.cls-1{fill:#a395c8;}.cls-2{clip-path:url(#clip-path);}.cls-3{fill:#ef4136;}.cls-4{fill:#013d37;}.cls-5{fill:#d99e72;}.cls-6{fill:#fbb688;}</style><clipPath id="clip-path"><path id="SVGID" class="cls-1" d="M356.3,420.74a58.8,58.8,0,1,1-58.8-58.8A58.81,58.81,0,0,1,356.3,420.74Z"/></clipPath></defs><path id="SVGID-2" data-name="SVGID" class="cls-1" d="M356.3,420.74a58.8,58.8,0,1,1-58.8-58.8A58.81,58.81,0,0,1,356.3,420.74Z"/><g class="cls-2"><path class="cls-3" d="M319.88,426.33c.57-7.73,1.52-19.76,1.52-19.76,7-15.61-4.23-38.4-13.79-31.9C297.37,361,263,376.31,273.35,406.35A95.6,95.6,0,0,1,272,425.76c-2.59,13.35-7.27,27.77-3,31.08,6.09,4.65,50.85,5.17,53.57,1.69C327,452.89,319.3,434.06,319.88,426.33Z"/><path class="cls-4" d="M329.94,455.11c-3.69-4.6-32.94-14.72-32.94-14.72s-28.64,11.19-32.95,14.72S258.13,481,258.13,481H335S333.63,459.72,329.94,455.11Z"/><path class="cls-5" d="M306.06,445.79s-1.11,5.43-9.06,5.43-9.05-5.43-9.05-5.43a12,12,0,0,0,0-9.54c-2.21-5.15,20.82-6.2,18.11,0S306.06,445.79,306.06,445.79Z"/><path class="cls-6" d="M322.6,411c0,4.09-2.89,9.71-4.85,9.71s-3.54-3.32-3.54-7.41a8.79,8.79,0,0,1,3.54-7.4C319.64,404.45,322.6,405.93,322.6,411Z"/><path class="cls-6" d="M272,411c0,4.09,2.9,9.71,4.85,9.71s3.54-3.32,3.54-7.41a8.79,8.79,0,0,0-3.54-7.4C274.94,404.45,272,405.93,272,411Z"/><path class="cls-6" d="M297.37,378.63c-13.73,0-19.8,9.62-19.8,24v18c0,12.5,14.44,23.19,19,23.19s20.59-12.5,20.59-24.34V402.6C317.17,388.25,311.1,378.63,297.37,378.63Z"/><path class="cls-3" d="M317.17,412.84l.58-7.45c3-14.51-6.52-28.55-20.25-28.55s-24.38,15.32-20.7,29.82l.77,8.48a10.09,10.09,0,0,0,3.1-6.25c.36-3.07,1.54-15.51,1.54-15.51l1.51,7.34,16.56,1.09,2.84-5.82,1.13,6.08,5.27.34,3.39-10.16s.47,8.83,1.53,15.48C315.09,411.89,317.17,412.84,317.17,412.84Z"/></g></svg>