<svg id="Layer_1" data-name="Layer 1" xmlns="http://www.w3.org/2000/svg" xmlns:xlink="http://www.w3.org/1999/xlink" viewBox="0 0 595.28 841.89"><defs><style>.cls-1{fill:#69bbc3;}.cls-2{clip-path:url(#clip-path);}.cls-3{fill:#003863;}.cls-4{fill:#d99e72;}.cls-5{fill:#1f070a;}.cls-6{fill:#fbb688;}.cls-7{fill:#af1116;}</style><clipPath id="clip-path"><path id="SVGID" class="cls-1" d="M356.3,421.55a58.8,58.8,0,1,1-58.8-58.8A58.8,58.8,0,0,1,356.3,421.55Z"/></clipPath></defs><path id="SVGID-2" data-name="SVGID" class="cls-1" d="M356.3,421.55a58.8,58.8,0,1,1-58.8-58.8A58.8,58.8,0,0,1,356.3,421.55Z"/><g class="cls-2"><path class="cls-3" d="M328.77,455.93c-3.69-4.61-32.94-14.73-32.94-14.73s-28.63,11.19-32.94,14.73S257,481.8,257,481.8h76.89S332.47,460.53,328.77,455.93Z"/><path class="cls-4" d="M304.9,446.6a7,7,0,0,1-4.09,4.49c-1.25.56-2.87,7.69-5,7.69s-3.91-7.17-5.19-7.79a6.89,6.89,0,0,1-3.87-4.39,12,12,0,0,0,0-9.54c-2.21-5.15,20.82-6.19,18.12,0S304.9,446.6,304.9,446.6Z"/><path class="cls-5" d="M316.51,426.09c1.68-7.57,3.72-18.71,3.72-18.71,7-15.6-.26-39.12-13.79-31.89-16.73-15.29-43.22,6.09-34.26,31.68A178.15,178.15,0,0,0,275,426.34c2,8.38,16.41,14.62,20.82,14.86S314.72,434.11,316.51,426.09Z"/><path class="cls-6" d="M321.44,411.85c0,4.08-2.9,9.7-4.86,9.7s-3.53-3.32-3.53-7.4a8.79,8.79,0,0,1,3.53-7.4C318.48,405.27,321.44,406.75,321.44,411.85Z"/><path class="cls-6" d="M270.81,411.85c0,4.08,2.9,9.7,4.85,9.7s3.54-3.32,3.54-7.4a8.76,8.76,0,0,0-3.54-7.4C273.77,405.27,270.81,406.75,270.81,411.85Z"/><path class="cls-6" d="M296.21,379.44c-13.74,0-19.81,9.62-19.81,24v18c0,12.5,14.44,23.19,19,23.19S316,432.08,316,420.23V403.41C316,389.06,309.94,379.44,296.21,379.44Z"/><path class="cls-5" d="M316,413.65l1.23-10.47c0-14.35-7.3-25-21-25s-20.51,10.69-20.51,25l.7,12.78a13.47,13.47,0,0,0,1.49-6.79c-.33-9.21,6.11-10,13.63-11.47,11.84-2.26,15.17-9.36,15.17-9.36s3.88,1.31,6.36,7.1c1.6,3.74,2,9.47,1.85,11.81A25.27,25.27,0,0,0,316,413.65Z"/><path class="cls-7" d="M284.55,403.18c-5.32,0-8.64,2-8.64,4.07,0,3.34,1.22,8.74,6.49,9.38,5.11.62,11.77-1.23,11.77-9.74C294.17,404.91,289.86,403.18,284.55,403.18Zm-1.77,12.49c-4.51-.55-5.55-5.17-5.55-8,0-1.79,2.84-3.48,7.39-3.48s8.24,1.48,8.24,3.17C292.86,414.61,287.15,416.2,282.78,415.67Z"/><path class="cls-7" d="M297.5,409a1.83,1.83,0,0,0-2-1.29c-1.2,0-1.51,1.42-1.51,1.42l-.64-3.75a3.24,3.24,0,0,0,1.47.76,6,6,0,0,0,1.6,0,2.38,2.38,0,0,0,1.08-.76Z"/><path class="cls-7" d="M276.65,411.08s-1.91-.14-1.91-1.12V407c0-1.54,1.91-1.05,1.91-1.05Z"/><path class="cls-7" d="M296.64,406.89c0,8.51,6.67,10.36,11.77,9.74,5.28-.64,6.49-6,6.49-9.38,0-2.09-3.32-4.07-8.63-4.07S296.64,404.91,296.64,406.89Zm1.32.44c0-1.69,3.69-3.17,8.23-3.17s7.4,1.69,7.4,3.48c0,2.86-1,7.48-5.56,8C303.66,416.2,298,414.61,298,407.33Z"/><path class="cls-7" d="M314.16,411.08s1.91-.14,1.91-1.12V407c0-1.54-1.91-1.05-1.91-1.05Z"/></g></svg>