<svg id="Layer_1" data-name="Layer 1" xmlns="http://www.w3.org/2000/svg" xmlns:xlink="http://www.w3.org/1999/xlink" viewBox="0 0 595.28 841.89"><defs><style>.cls-1{fill:#8da448;}.cls-2{clip-path:url(#clip-path);}.cls-3{fill:#2c1216;}.cls-4{fill:#d95560;}.cls-5{fill:#d99e72;}.cls-6{fill:#fbb688;}</style><clipPath id="clip-path"><path id="SVGID" class="cls-1" d="M356.3,420.73a58.8,58.8,0,1,1-58.8-58.8A58.81,58.81,0,0,1,356.3,420.73Z"/></clipPath></defs><path id="SVGID-2" data-name="SVGID" class="cls-1" d="M356.3,420.73a58.8,58.8,0,1,1-58.8-58.8A58.81,58.81,0,0,1,356.3,420.73Z"/><g class="cls-2"><path class="cls-3" d="M322.65,398.51c-3.13,1,.36,13.47,4,8.48.23,1.83-.66,3.75-2.69,3.65-.49,2.1,2.61,1.7,2.67,4.16s-2.21,2.21-2.22,4.44a3.15,3.15,0,0,0,4.2,2.77c2.29-.81,2.46-2.79,3-4.54a6.18,6.18,0,0,1,.27,6.16c1.45.18,2.2-1.12,2.25-2.4a4,4,0,0,1-.27,4.13c.56-.12,1.33.17,1.9.08.37,2.16-1.46,4.57-3.16,5.83s-5.52,1.05-2.48,3.57c2.24,1.86,4.13.79,4.2,4.38.05,2.57-1.17,5-3.9,4.89a.86.86,0,0,0-.19-.43c2,2.29,1.44,6.05-.61,8,.41-1.35.63-3.25-.68-4.08.18,1,0,2.11-1,2.48.42,4.82-8.65,5.07-11.89,5.39-2.46.23-4.72,1.25-7.15,1.49a48.59,48.59,0,0,1-7.12-.3c-.22-10-5.54-19-9.11-28.16-1.61-4.13.77-6.6,3.7-9.81,4.23-4.62,8.84-8.63,12.53-13.56Z"/><path class="cls-3" d="M271.08,398.51c3.12,1-.36,13.47-4,8.48-.23,1.83.65,3.75,2.69,3.65.49,2.1-2.61,1.7-2.68,4.16s2.21,2.21,2.22,4.44a3.14,3.14,0,0,1-4.19,2.77c-2.29-.81-2.47-2.79-3-4.54a6.18,6.18,0,0,0-.28,6.16c-1.44.18-2.19-1.12-2.24-2.4a4,4,0,0,0,.27,4.13c-.56-.12-1.34.17-1.91.08-.36,2.16,1.47,4.57,3.17,5.83s5.51,1.05,2.48,3.57c-2.24,1.86-4.13.79-4.21,4.38-.05,2.57,1.18,5,3.91,4.89a.85.85,0,0,1,.18-.43c-2,2.29-1.43,6.05.62,8-.42-1.35-.63-3.25.67-4.08-.17,1,0,2.11,1,2.48-.42,4.82,8.65,5.07,11.88,5.39,2.46.23,4.73,1.25,7.16,1.49a48.4,48.4,0,0,0,7.11-.3c.23-10,5.54-19,9.11-28.16,1.62-4.13-.76-6.6-3.7-9.81-4.23-4.62-8.83-8.63-12.52-13.56Z"/><path class="cls-4" d="M329.4,455.11c-3.7-4.6-32.95-14.72-32.95-14.72s-28.63,11.19-32.94,14.72S257.58,481,257.58,481h76.89S333.09,459.72,329.4,455.11Z"/><path class="cls-5" d="M305.52,445.79s-1.12,5.43-9.06,5.43-9.06-5.43-9.06-5.43a12,12,0,0,0,0-9.54c-2.21-5.15,20.82-6.2,18.12,0S305.52,445.79,305.52,445.79Z"/><path class="cls-3" d="M315.37,425.44c.57-7.73,5.48-18.87,5.48-18.87,7-15.61-4.22-38.4-13.78-31.9-10.24-13.66-44.62,1.64-34.27,31.68,0,0,4.25,10.36,4.66,18s14.15,15,18.57,15.24S314.79,433.17,315.37,425.44Z"/><path class="cls-6" d="M322.06,411c0,4.09-2.9,9.7-4.86,9.7s-3.53-3.31-3.53-7.4a8.82,8.82,0,0,1,3.53-7.4C319.1,404.45,322.06,405.93,322.06,411Z"/><path class="cls-6" d="M271.43,411c0,4.09,2.9,9.7,4.85,9.7s3.54-3.31,3.54-7.4a8.79,8.79,0,0,0-3.54-7.4C274.39,404.45,271.43,405.93,271.43,411Z"/><path class="cls-6" d="M296.83,378.63c-13.73,0-19.81,9.62-19.81,24v18c0,12.5,14.45,23.19,19,23.19s20.6-12.5,20.6-24.34V402.6C316.63,388.25,310.56,378.63,296.83,378.63Z"/><path class="cls-3" d="M316.63,412.84l.58-7.45c3-14.51-6.53-28.55-20.26-28.55s-24.37,15.32-20.7,29.82l.77,8.48a10.17,10.17,0,0,0,3.11-6.25c.61-5.34,4.49-10.57,12-12,11.84-2.27,15.17-9.37,15.17-9.37a57.81,57.81,0,0,1,5,9.37c1.61,3.74,0,6,1.39,9.77A32.22,32.22,0,0,0,316.63,412.84Z"/></g></svg>