<svg id="Layer_1" data-name="Layer 1" xmlns="http://www.w3.org/2000/svg" xmlns:xlink="http://www.w3.org/1999/xlink" viewBox="0 0 595.28 841.89"><defs><style>.cls-1{fill:#f4d49d;}.cls-2{clip-path:url(#clip-path);}.cls-3{fill:#202c31;}.cls-4{fill:#d99e72;}.cls-5{fill:#3d2527;}.cls-6{fill:#fbb688;}</style><clipPath id="clip-path"><path id="SVGID" class="cls-1" d="M356.3,421.55a58.8,58.8,0,1,1-58.8-58.8A58.8,58.8,0,0,1,356.3,421.55Z"/></clipPath></defs><path id="SVGID-2" data-name="SVGID" class="cls-1" d="M356.3,421.55a58.8,58.8,0,1,1-58.8-58.8A58.8,58.8,0,0,1,356.3,421.55Z"/><g class="cls-2"><path class="cls-3" d="M330.07,455.93c-3.7-4.61-32.95-14.72-32.95-14.72s-28.63,11.18-32.94,14.72-5.92,25.87-5.92,25.87h76.89S333.76,460.53,330.07,455.93Z"/><path class="cls-4" d="M306.19,446.61s-1.12,5.42-9.06,5.42-9.05-5.42-9.05-5.42a12.12,12.12,0,0,0,0-9.55c-2.21-5.15,20.81-6.19,18.11,0S306.19,446.61,306.19,446.61Z"/><path class="cls-5" d="M316,426.25c.58-7.73,5.49-18.87,5.49-18.87,7-15.6-.27-39.12-13.79-31.89-16.74-15.29-43.22,6.09-34.26,31.68,0,0,4.25,10.36,4.66,18s14.15,22.93,18.56,23.18S315.47,434,316,426.25Z"/><path class="cls-6" d="M322.73,411.85c0,4.08-2.9,9.7-4.85,9.7s-3.54-3.31-3.54-7.4a8.76,8.76,0,0,1,3.54-7.4C319.77,405.27,322.73,406.75,322.73,411.85Z"/><path class="cls-6" d="M272.11,411.85c0,4.08,2.89,9.7,4.85,9.7s3.53-3.31,3.53-7.4a8.76,8.76,0,0,0-3.53-7.4C275.07,405.27,272.11,406.75,272.11,411.85Z"/><path class="cls-6" d="M297.5,379.44c-13.73,0-19.8,9.62-19.8,24v18c0,12.5,14.44,23.19,19,23.19s20.6-12.5,20.6-24.34V403.42C317.3,389.06,311.23,379.44,297.5,379.44Z"/><path class="cls-5" d="M317.3,413.66l1.24-10.47c0-14.36-7.31-25.05-21-25.05s-21.2,12.23-21.2,26.59L277.7,416a7.66,7.66,0,0,0,3.1-6.25c-.33-9.21,4.5-10.57,12-12,11.84-2.26,15.17-9.36,15.17-9.36s3.88,1.31,6.36,7.1c1.61,3.74-.49,7.81-.62,10.15S317.3,413.66,317.3,413.66Z"/><path class="cls-5" d="M298.79,437.08a15.62,15.62,0,0,1-4.17,0c2.22,3.41,0,8.25,0,8.25h4.17A11.17,11.17,0,0,1,298.79,437.08Z"/></g></svg>